<svg width="46" height="46" viewBox="0 0 46 46" fill="none" xmlns="http://www.w3.org/2000/svg">
<g id="aws-svgrepo-com 1" clip-path="url(#clip0_18_639)">
<path id="Vector" d="M13.0664 22.1167C13.0664 22.6726 13.1228 23.1242 13.23 23.4572C13.3486 23.7874 13.501 24.1486 13.7098 24.5408C13.7764 24.6445 13.8126 24.7648 13.8142 24.888C13.8142 25.0375 13.7239 25.1899 13.532 25.3395L12.5838 25.9716C12.47 26.0538 12.3346 26.1009 12.1943 26.1071C12.0419 26.1071 11.8924 26.0337 11.7428 25.8983C11.54 25.68 11.3585 25.4428 11.201 25.1899C11.0331 24.9004 10.8777 24.6038 10.7353 24.301C9.56417 25.6866 8.09387 26.3808 6.32161 26.3808C5.06014 26.3808 4.05267 26.0168 3.31893 25.2943C2.58237 24.5719 2.20703 23.6067 2.20703 22.4017C2.20703 21.1205 2.65856 20.082 3.57291 19.2974C4.49009 18.5129 5.7064 18.1235 7.25289 18.1235C7.76087 18.1235 8.28859 18.1686 8.84454 18.242C9.40049 18.3182 9.97337 18.4395 10.5716 18.575V17.4744C10.5716 16.3286 10.3318 15.53 9.86613 15.0643C9.38638 14.5959 8.57362 14.3701 7.41657 14.3701C6.89167 14.3701 6.35265 14.4322 5.79671 14.5676C5.24435 14.6991 4.70208 14.8698 4.17401 15.0784C4.00353 15.1556 3.82819 15.2216 3.64911 15.276C3.57151 15.3016 3.49084 15.3168 3.40923 15.3211C3.19758 15.3211 3.09316 15.1687 3.09316 14.8527V14.1133C3.09316 13.8734 3.12138 13.69 3.19758 13.5884C3.3113 13.4499 3.45642 13.3406 3.62089 13.2695C4.14297 12.9986 4.77512 12.7728 5.51168 12.5922C6.24541 12.3946 7.02713 12.3072 7.854 12.3072C9.64037 12.3072 10.947 12.7135 11.788 13.5263C12.6148 14.3391 13.0353 15.5751 13.0353 17.2345V22.1167H13.0635H13.0664ZM6.96787 24.4054C7.46173 24.4054 7.97252 24.3151 8.51436 24.1345C9.05338 23.9539 9.53595 23.6209 9.93951 23.1693C10.1815 22.8921 10.3563 22.5628 10.4503 22.207C10.5406 21.8429 10.6027 21.4083 10.6027 20.8947V20.2626C10.1469 20.1521 9.68522 20.0673 9.21988 20.0086C8.75194 19.9481 8.28067 19.917 7.80884 19.9155C6.80136 19.9155 6.0648 20.113 5.57094 20.5194C5.07426 20.9258 4.8372 21.4987 4.8372 22.2521C4.8372 22.9577 5.01499 23.4854 5.39033 23.8494C5.75155 24.2248 6.27646 24.4054 6.96787 24.4054ZM19.0266 26.0337C18.7557 26.0337 18.575 25.9886 18.4565 25.8813C18.3352 25.791 18.2308 25.5822 18.1404 25.2943L14.6129 13.6476C14.5433 13.4524 14.4969 13.2498 14.4746 13.0437C14.4746 12.8039 14.5959 12.6684 14.8358 12.6684H16.3089C16.5911 12.6684 16.7887 12.7135 16.8931 12.818C17.0144 12.9083 17.1047 13.1199 17.1951 13.405L19.718 23.381L22.0603 13.405C22.1337 13.1058 22.224 12.9083 22.3425 12.818C22.5236 12.707 22.7345 12.6548 22.9464 12.6684H24.1458C24.4337 12.6684 24.6256 12.7135 24.7469 12.818C24.8683 12.9083 24.9727 13.1199 25.0319 13.405L27.4053 23.5023L30.0016 13.405C30.0498 13.1865 30.1538 12.9842 30.3036 12.818C30.4784 12.7071 30.684 12.6548 30.8906 12.6684H32.2875C32.5274 12.6684 32.6628 12.7897 32.6628 13.0437C32.6628 13.1199 32.6459 13.1961 32.6346 13.2864C32.6103 13.4145 32.5744 13.5402 32.5274 13.6618L28.9066 25.3084C28.8163 25.6104 28.7119 25.808 28.5934 25.8983C28.423 26.0073 28.2225 26.0596 28.0205 26.0478H26.7308C26.4458 26.0478 26.2511 26.0027 26.1297 25.8983C26.0084 25.791 25.904 25.5963 25.8447 25.2943L23.5165 15.5779L21.2024 25.283C21.129 25.585 21.0387 25.7797 20.9202 25.8842C20.7988 25.9914 20.5872 26.0365 20.3191 26.0365H19.0266V26.0337ZM38.3239 26.4401C37.5446 26.4411 36.7678 26.3502 36.0098 26.1692C35.2591 25.9886 34.675 25.791 34.2827 25.5653C34.0428 25.4298 33.8791 25.2802 33.817 25.1419C33.7597 25.0092 33.7299 24.8661 33.7296 24.7215V23.9539C33.7296 23.6378 33.8481 23.4854 34.0739 23.4854C34.166 23.4856 34.2575 23.5008 34.3448 23.5305C34.4351 23.5616 34.5705 23.6208 34.7201 23.6829C35.2281 23.9087 35.7869 24.0893 36.371 24.2107C36.9721 24.3292 37.5563 24.3913 38.1574 24.3913C39.1056 24.3913 39.8394 24.2248 40.3501 23.8946C40.5955 23.746 40.7971 23.5351 40.9345 23.2833C41.0718 23.0314 41.1399 22.7477 41.1319 22.461C41.1369 22.2674 41.1036 22.0747 41.0339 21.894C40.9641 21.7134 40.8593 21.5483 40.7255 21.4083C40.4574 21.1205 39.9466 20.8637 39.21 20.6238L37.0314 19.9465C35.9364 19.5994 35.1237 19.0858 34.6298 18.4085C34.1463 17.7827 33.8825 17.015 33.8791 16.2242C33.8791 15.5921 34.0146 15.0333 34.2827 14.5507C34.5536 14.071 34.9148 13.6476 35.3664 13.3146C35.8179 12.9704 36.3259 12.7135 36.927 12.5329C37.5281 12.3523 38.1574 12.2761 38.8178 12.2761C39.1508 12.2761 39.4951 12.2902 39.8252 12.3354C40.1695 12.3805 40.4856 12.4426 40.8017 12.5047C41.1008 12.5781 41.3887 12.6515 41.6568 12.7446C41.9277 12.8349 42.1365 12.9252 42.2889 13.0155C42.4661 13.1045 42.6206 13.2329 42.7404 13.3908C42.837 13.5378 42.8836 13.712 42.8731 13.8875V14.5959C42.8731 14.9119 42.7545 15.0784 42.5288 15.0784C42.3289 15.0556 42.1353 14.9943 41.9587 14.8978C41.0512 14.4955 40.0671 14.2952 39.0746 14.3108C38.2195 14.3108 37.5422 14.4463 37.0765 14.7341C36.6109 15.0164 36.371 15.4566 36.371 16.0746C36.371 16.4951 36.5206 16.8563 36.8226 17.1442C37.1217 17.4292 37.6776 17.7143 38.4735 17.9711L40.607 18.6484C41.6878 18.9955 42.4695 19.478 42.9352 20.0961C43.4008 20.7141 43.6237 21.4225 43.6237 22.207C43.6237 22.8561 43.4911 23.4402 43.2343 23.9539C42.9684 24.4692 42.595 24.9215 42.1393 25.2802C41.6737 25.6556 41.1177 25.9293 40.4715 26.124C39.7942 26.3357 39.0887 26.4401 38.3239 26.4401Z" fill="#252F3E"/>
<g id="Group">
<path id="Vector_2" fill-rule="evenodd" clip-rule="evenodd" d="M41.1599 33.7606C36.2213 37.4208 29.042 39.3652 22.8701 39.3652C14.2204 39.3652 6.42588 36.1565 0.539037 30.8228C0.0733957 30.3995 0.493884 29.8266 1.04701 30.1596C7.41643 33.865 15.2702 36.1113 23.3978 36.1113C28.8755 36.1113 34.8978 34.9656 40.4403 32.6148C41.2672 32.2395 41.9727 33.1566 41.1599 33.7606Z" fill="#FF9900"/>
<path id="Vector_3" fill-rule="evenodd" clip-rule="evenodd" d="M43.2174 31.4098C42.5881 30.5998 39.0436 31.0203 37.4378 31.215C36.9581 31.2771 36.8819 30.8538 37.3165 30.5377C40.1385 28.5482 44.7808 29.1211 45.3199 29.7843C45.8617 30.4616 45.1703 35.118 42.526 37.3474C42.1225 37.6945 41.733 37.5167 41.9108 37.0652C42.5119 35.5695 43.8496 32.2112 43.2174 31.4126V31.4098Z" fill="#FF9900"/>
</g>
</g>
<defs>
<clipPath id="clip0_18_639">
<rect width="45.1531" height="45.1531" fill="white" transform="translate(0.338867 0.423431)"/>
</clipPath>
</defs>
</svg>
