<svg width="19" height="18" viewBox="0 0 19 18" fill="none" xmlns="http://www.w3.org/2000/svg">
<g id="vuesax/linear/call-calling">
<g id="call-calling">
<g id="call-calling_2">
<path id="Vector" d="M16.9775 13.7475C16.9775 14.0175 16.9175 14.295 16.79 14.565C16.6625 14.835 16.4975 15.09 16.28 15.33C15.9125 15.735 15.5075 16.0275 15.05 16.215C14.6 16.4025 14.1125 16.5 13.5875 16.5C12.8225 16.5 12.005 16.32 11.1425 15.9525C10.28 15.585 9.4175 15.09 8.5625 14.4675C7.7 13.8375 6.8825 13.14 6.1025 12.3675C5.33 11.5875 4.6325 10.77 4.01 9.915C3.395 9.06 2.9 8.205 2.54 7.3575C2.18 6.5025 2 5.685 2 4.905C2 4.395 2.09 3.9075 2.27 3.4575C2.45 3 2.735 2.58 3.1325 2.205C3.6125 1.7325 4.1375 1.5 4.6925 1.5C4.9025 1.5 5.1125 1.545 5.3 1.635C5.495 1.725 5.6675 1.86 5.8025 2.055L7.5425 4.5075C7.6775 4.695 7.775 4.8675 7.8425 5.0325C7.91 5.19 7.9475 5.3475 7.9475 5.49C7.9475 5.67 7.895 5.85 7.79 6.0225C7.6925 6.195 7.55 6.375 7.37 6.555L6.8 7.1475C6.7175 7.23 6.68 7.3275 6.68 7.4475C6.68 7.5075 6.6875 7.56 6.7025 7.62C6.725 7.68 6.7475 7.725 6.7625 7.77C6.8975 8.0175 7.13 8.34 7.46 8.73C7.7975 9.12 8.1575 9.5175 8.5475 9.915C8.9525 10.3125 9.3425 10.68 9.74 11.0175C10.13 11.3475 10.4525 11.5725 10.7075 11.7075C10.745 11.7225 10.79 11.745 10.8425 11.7675C10.9025 11.79 10.9625 11.7975 11.03 11.7975C11.1575 11.7975 11.255 11.7525 11.3375 11.67L11.9075 11.1075C12.095 10.92 12.275 10.7775 12.4475 10.6875C12.62 10.5825 12.7925 10.53 12.98 10.53C13.1225 10.53 13.2725 10.56 13.4375 10.6275C13.6025 10.695 13.775 10.7925 13.9625 10.92L16.445 12.6825C16.64 12.8175 16.775 12.975 16.8575 13.1625C16.9325 13.35 16.9775 13.5375 16.9775 13.7475Z" stroke="white" stroke-width="1.5" stroke-miterlimit="10"/>
<path id="Vector_2" d="M14.375 6.75C14.375 6.3 14.0225 5.61 13.4975 5.0475C13.0175 4.53 12.38 4.125 11.75 4.125" stroke="white" stroke-width="1.5" stroke-linecap="round" stroke-linejoin="round"/>
<path id="Vector_3" d="M17 6.75C17 3.8475 14.6525 1.5 11.75 1.5" stroke="white" stroke-width="1.5" stroke-linecap="round" stroke-linejoin="round"/>
</g>
</g>
</g>
</svg>
