<svg width="41" height="33" viewBox="0 0 41 33" fill="none" xmlns="http://www.w3.org/2000/svg">
<path d="M0.0722241 16.1362C0.0722241 11.4681 3.11948 7.967 7.69037 7.967C10.0893 7.967 11.9695 8.97195 12.9096 10.6901L13.1365 8.48569H16.7997V23.6896C16.7997 29.0385 13.5904 32.3775 8.40356 32.3775C3.80025 32.3775 0.655742 29.7517 0.169477 25.4725H4.12443C4.38377 27.5473 5.97223 28.7791 8.40356 28.7791C11.1266 28.7791 12.8772 27.061 12.8772 24.4027V21.7445C11.8722 23.2357 9.89477 24.1758 7.59312 24.1758C3.05465 24.1758 0.0722241 20.772 0.0722241 16.1362ZM4.05959 16.039C4.05959 18.7297 5.77773 20.7396 8.37114 20.7396C11.0942 20.7396 12.7799 18.8269 12.7799 16.039C12.7799 13.3159 11.1266 11.4357 8.37114 11.4357C5.74531 11.4357 4.05959 13.4132 4.05959 16.039ZM22.6108 5.27634C21.2493 5.27634 20.1795 4.20656 20.1795 2.87743C20.1795 1.54831 21.2493 0.510948 22.6108 0.510948C23.9075 0.510948 24.9773 1.54831 24.9773 2.87743C24.9773 4.20656 23.9075 5.27634 22.6108 5.27634ZM20.6334 24.5V8.48569H24.5883V24.5H20.6334ZM40.5069 24.5H27.5723V21.2582L35.547 11.7923H27.5723V8.48569H40.5069V11.7599L32.4025 21.1934H40.5069V24.5Z" fill="#EB0A0A"/>
</svg>
