<svg width="31" height="36" viewBox="0 0 31 36" fill="none" xmlns="http://www.w3.org/2000/svg">
<g id="mailchimp 2">
<path id="Vector" d="M22.4278 17.1534C22.6373 17.1262 22.8493 17.1262 23.0587 17.1534C23.1713 16.8936 23.191 16.4458 23.0893 15.9588C22.938 15.2349 22.7331 14.796 22.3105 14.8645C21.8878 14.933 21.8716 15.4574 22.0228 16.1819C22.1083 16.589 22.2596 16.9377 22.4299 17.1534H22.4278ZM18.7944 17.7287C19.0977 17.8643 19.2829 17.9498 19.3561 17.8732C19.4843 17.7415 19.12 17.2362 18.5339 16.9851C18.1955 16.8449 17.8267 16.7942 17.463 16.838C17.0993 16.8817 16.7529 17.0184 16.4574 17.2348C16.2539 17.3827 16.0633 17.5889 16.0904 17.7137C16.1481 17.9674 16.7688 17.5299 17.6235 17.4777C18.0984 17.4478 18.4919 17.5964 18.7944 17.7293V17.7287ZM18.1839 18.0767C17.5686 18.173 17.1663 18.5197 17.2701 18.7618C17.3312 18.7849 17.3495 18.8168 17.6235 18.7069C18.0284 18.5541 18.4658 18.5085 18.8935 18.5746C19.0916 18.5977 19.1859 18.6099 19.2286 18.5414C19.3276 18.3908 18.8412 17.9987 18.1846 18.0767H18.1839ZM21.8587 19.2367C22.088 18.7707 21.1192 18.2917 20.8886 18.7618C20.6579 19.232 21.6294 19.7034 21.86 19.2347L21.8587 19.2367ZM22.921 17.8481C22.4014 17.8392 22.3817 18.9199 22.9034 18.9287C23.4251 18.9375 23.4447 17.8562 22.9224 17.846L22.921 17.8481ZM8.0787 23.2005C7.98915 23.2215 7.67167 23.2989 7.50411 23.0411C7.15135 22.4984 8.25779 21.6585 7.70762 20.6145C7.0903 19.4294 5.82036 19.696 5.32989 20.2387C4.73902 20.8899 4.73834 21.8356 4.9907 21.8722C5.28037 21.9109 5.26748 21.4333 5.49135 21.0833C5.5539 20.9867 5.63497 20.9036 5.72985 20.8386C5.82474 20.7736 5.93158 20.728 6.04418 20.7045C6.15678 20.6811 6.27291 20.6802 6.38587 20.7018C6.49882 20.7235 6.60636 20.7674 6.70226 20.8309C7.48851 21.3458 6.7952 22.0357 6.85693 22.7724C6.95123 23.904 8.10651 23.8829 8.32088 23.383C8.33473 23.3583 8.34083 23.33 8.33842 23.3019C8.336 23.2737 8.32516 23.2469 8.30731 23.2249C8.30935 23.2853 8.35344 23.1367 8.08006 23.1985L8.0787 23.2005ZM28.4112 22.0425C28.1839 21.2467 28.2368 21.417 27.9512 20.6504C28.1174 20.4015 28.9885 19.0223 27.743 17.7164C27.0374 16.9757 25.4433 16.5944 24.9548 16.4587C24.8531 15.686 25.2703 12.4766 23.4949 10.8282C24.9053 9.36624 25.7852 7.75576 25.7831 6.37457C25.7791 3.71803 22.5167 2.91482 18.4959 4.57889L17.6446 4.94047C17.6405 4.93708 16.104 3.42971 16.0809 3.40936C11.4984 -0.587667 -2.83376 15.3414 1.74871 19.2109L2.75001 20.0596C2.47978 20.7847 2.38449 21.5633 2.47187 22.3322C2.69981 24.598 4.91405 26.4309 7.05299 26.4282C10.9693 35.4548 25.2268 35.4697 28.9166 26.6317C29.0346 26.3285 29.5346 24.9622 29.5346 23.7568C29.5346 22.5513 28.8501 22.0425 28.4132 22.0425H28.4112ZM6.97429 25.3096C5.42622 25.2682 3.75469 23.8748 3.58849 22.2223C3.16992 18.0631 8.62615 17.1161 9.2869 21.3858C9.59488 23.3965 8.97009 25.3537 6.97226 25.3075L6.97429 25.3096ZM5.71861 17.5625C4.69018 17.7626 3.78386 18.3453 3.22894 19.1533C2.89789 18.8772 2.27921 18.3392 2.17135 18.1357C1.28877 16.4499 3.13736 13.1835 4.43036 11.3376C7.62622 6.77685 12.6306 3.32524 14.9487 3.95139C15.3252 4.0579 16.5727 5.50421 16.5727 5.50421C16.5727 5.50421 14.256 6.78906 12.109 8.58067C9.21499 10.8092 7.02856 14.0478 5.71861 17.5625ZM21.9238 24.4243C21.9238 24.4243 19.4993 24.7838 17.2084 23.9447C17.6296 22.5771 19.04 24.3585 23.748 23.0078C24.7852 22.7107 26.1474 22.1259 27.2077 21.2881C27.4359 21.8152 27.5981 22.3684 27.6907 22.9352C27.939 22.8905 28.6574 22.9 28.4668 24.1631C28.2436 25.5111 27.6711 26.6053 26.7078 27.612C26.1061 28.264 25.3898 28.8 24.5946 29.1933C24.1516 29.4254 23.6901 29.6201 23.2148 29.7754C19.5847 30.9612 15.8679 29.6573 14.6671 26.8583C14.5698 26.6447 14.4892 26.4238 14.4263 26.1976C13.9155 24.3524 14.349 22.1388 15.7044 20.7454C15.7878 20.6566 15.8726 20.5521 15.8726 20.4205C15.8608 20.3072 15.8154 20.1999 15.7424 20.1125C15.2675 19.4253 13.6265 18.2537 13.9562 15.9859C14.1936 14.3578 15.6176 13.2106 16.9458 13.2785L17.285 13.2981C17.8603 13.3321 18.363 13.406 18.8372 13.4257C19.6302 13.4596 20.3432 13.3449 21.1871 12.6415C21.472 12.404 21.7006 12.1978 22.0866 12.132C22.2427 12.0934 22.4049 12.0869 22.5636 12.113C22.7222 12.1392 22.8738 12.1973 23.0092 12.284C23.6876 12.7344 23.7826 13.8259 23.8178 14.6237C23.8375 15.0796 23.8925 16.184 23.9115 16.4981C23.9542 17.2219 24.1441 17.3237 24.5295 17.4478C24.7459 17.519 24.9467 17.572 25.2425 17.6554C26.1386 17.9071 26.6671 18.1628 27.0062 18.4905C27.1792 18.6599 27.2921 18.8812 27.3278 19.1207C27.4336 19.892 26.7295 20.8438 24.8646 21.7094C21.6959 23.1801 18.5095 22.6897 18.0482 22.6374C16.6813 22.4536 15.9025 24.2194 16.722 25.429C18.2578 27.6955 25.0254 26.7857 26.9906 23.9806C27.0375 23.9128 26.9988 23.8728 26.9411 23.9128C24.1075 25.8516 20.3567 26.5049 18.2266 25.6766C17.903 25.5511 17.2274 25.2397 17.1453 24.5457C20.103 25.4609 21.9618 24.5959 21.9618 24.5959C21.9618 24.5959 22.0995 24.4067 21.9238 24.4243ZM11.6212 11.3179C12.7568 10.0053 14.1556 8.86356 15.4086 8.22249C15.4181 8.21689 15.4291 8.2146 15.44 8.21597C15.4509 8.21735 15.4611 8.22231 15.4689 8.23009C15.4766 8.23786 15.4816 8.248 15.483 8.2589C15.4843 8.26981 15.4821 8.28086 15.4765 8.29032C15.3774 8.47077 15.1854 8.85609 15.1244 9.14848C15.1219 9.15853 15.1226 9.16908 15.1264 9.17873C15.1301 9.18838 15.1366 9.19666 15.1452 9.20248C15.1537 9.2083 15.1639 9.21138 15.1742 9.21131C15.1845 9.21123 15.1946 9.20801 15.2031 9.20207C15.9825 8.6709 17.3386 8.10173 18.5271 8.02847C18.5383 8.0277 18.5495 8.03057 18.5589 8.03664C18.5684 8.04271 18.5756 8.05166 18.5796 8.06216C18.5835 8.07267 18.584 8.08417 18.5809 8.09496C18.5778 8.10576 18.5713 8.11527 18.5624 8.12208C18.3659 8.27351 18.19 8.45003 18.0394 8.64715C18.0339 8.65466 18.0307 8.66352 18.0299 8.67277C18.0291 8.68202 18.0309 8.6913 18.035 8.69962C18.0391 8.70793 18.0454 8.71496 18.0533 8.71994C18.0611 8.72492 18.0701 8.72767 18.0794 8.72788C18.9145 8.73398 20.0915 9.02637 20.8608 9.45646C20.9123 9.48563 20.8757 9.58603 20.8174 9.57314C16.0992 8.4918 12.4678 10.8302 11.6931 11.3932C11.6828 11.3999 11.6704 11.4026 11.6583 11.401C11.6461 11.3993 11.6349 11.3934 11.6267 11.3842C11.6185 11.3751 11.6139 11.3633 11.6136 11.351C11.6134 11.3387 11.6175 11.3268 11.6253 11.3173L11.6212 11.3179Z" fill="black"/>
</g>
</svg>
