<svg width="30" height="30" viewBox="0 0 30 30" fill="none" xmlns="http://www.w3.org/2000/svg">
<g id="Group">
<path id="Vector" d="M26.7596 0.527847H1.92017C1.07944 0.527847 0.391602 1.21698 0.391602 2.0593V4.81588C0.391602 5.6582 1.07944 6.34734 1.92017 6.34734H26.6831C27.5239 6.34734 28.2117 5.6582 28.2117 4.81588V2.0593C28.2881 1.21698 27.6003 0.527847 26.7596 0.527847ZM26.7596 15.9189H1.92017C1.07944 15.9189 0.391602 16.608 0.391602 17.4503V20.2069C0.391602 21.0492 1.07944 21.7384 1.92017 21.7384H26.6831C27.5239 21.7384 28.2117 21.0492 28.2117 20.2069V17.4503C28.2881 16.608 27.6003 15.9189 26.7596 15.9189ZM15.9067 23.6527H1.92017C1.07944 23.6527 0.391602 24.3418 0.391602 25.1841V27.9407C0.391602 28.783 1.07944 29.4722 1.92017 29.4722H15.9067C16.7474 29.4722 17.4352 28.783 17.4352 27.9407V25.1841C17.4352 24.3418 16.7474 23.6527 15.9067 23.6527ZM28.2881 8.26165H1.92017C1.07944 8.26165 0.391602 8.95079 0.391602 9.79306V12.5497C0.391602 13.392 1.07944 14.0811 1.92017 14.0811H28.2881C29.1289 14.0811 29.8167 13.392 29.8167 12.5497V9.79306C29.8167 8.95079 29.1289 8.26165 28.2881 8.26165Z" fill="#0BA4DB"/>
</g>
</svg>
