<svg width="42" height="42" viewBox="0 0 42 42" fill="none" xmlns="http://www.w3.org/2000/svg">
<g id="shopify-logo-svgrepo-com 1" clip-path="url(#clip0_18_635)">
<path id="Vector" d="M37.5888 10.3104C37.5609 10.1078 37.3834 9.99563 37.2367 9.98328C37.0903 9.97107 33.9918 9.7414 33.9918 9.7414C33.9918 9.7414 31.8398 7.60497 31.6036 7.3685C31.3673 7.13216 30.9057 7.20405 30.7266 7.25678C30.7002 7.26456 30.2564 7.40153 29.5223 7.6287C28.8034 5.56013 27.5348 3.6592 25.3029 3.6592C25.2412 3.6592 25.1778 3.6617 25.1144 3.66531C24.4797 2.82586 23.6934 2.46117 23.0142 2.46117C17.815 2.46117 15.3311 8.96065 14.5523 12.2635C12.532 12.8895 11.0968 13.3345 10.9135 13.3921C9.78583 13.7459 9.75016 13.7814 9.60209 14.844C9.49065 15.6485 6.54004 38.4669 6.54004 38.4669L29.5319 42.7748L41.9896 40.0798C41.9896 40.0798 37.6163 10.513 37.5888 10.3104ZM28.2515 8.02171L26.3061 8.62385C26.3067 8.48674 26.3074 8.35185 26.3074 8.20433C26.3074 6.91873 26.129 5.88361 25.8427 5.06304C26.9927 5.20737 27.7586 6.51587 28.2515 8.02171ZM24.4161 5.31797C24.7358 6.11911 24.9437 7.26886 24.9437 8.82035C24.9437 8.89973 24.943 8.97231 24.9423 9.04572C23.6771 9.43762 22.3023 9.8631 20.9244 10.29C21.6981 7.30411 23.1483 5.86197 24.4161 5.31797ZM22.8714 3.85571C23.0958 3.85571 23.3219 3.93189 23.5382 4.0808C21.8719 4.86487 20.0859 6.83963 19.3317 10.7832L16.1557 11.7668C17.0391 8.75888 19.137 3.85571 22.8714 3.85571Z" fill="#95BF46"/>
<path id="Vector_2" d="M34.0163 8.36919C33.8699 8.35698 30.7713 8.12731 30.7713 8.12731C30.7713 8.12731 28.6193 5.99088 28.3831 5.75441C28.2948 5.66643 28.1755 5.62133 28.0509 5.6019L26.3125 41.1604L38.7691 38.4657C38.7691 38.4657 34.3958 8.89889 34.3683 8.69628C34.3404 8.49367 34.163 8.38154 34.0163 8.36919Z" fill="#5E8E3E"/>
<path id="Vector_3" d="M22.0826 15.2527L20.5465 19.8219C20.5465 19.8219 19.2006 19.1037 17.5509 19.1037C15.1323 19.1037 15.0106 20.6214 15.0106 21.0039C15.0106 23.0908 20.4506 23.8904 20.4506 28.7786C20.4506 32.6244 18.0113 35.1008 14.7224 35.1008C10.7757 35.1008 8.75732 32.6445 8.75732 32.6445L9.81409 29.153C9.81409 29.153 11.8888 30.9341 13.6394 30.9341C14.7833 30.9341 15.2486 30.0335 15.2486 29.3754C15.2486 26.6532 10.7856 26.5318 10.7856 22.0587C10.7856 18.2939 13.4879 14.6507 18.9425 14.6507C21.0442 14.6507 22.0826 15.2527 22.0826 15.2527Z" fill="white"/>
</g>
<defs>
<clipPath id="clip0_18_635">
<rect width="40.522" height="40.522" fill="white" transform="translate(0.816406 0.738983)"/>
</clipPath>
</defs>
</svg>
